<svg xmlns="http://www.w3.org/2000/svg" aria-hidden="true" style="position:absolute;width:0;height:0;overflow:hidden">
  <defs>
    <symbol id="icon-location" viewBox="0 0 32 32">
      <path d="M16 19.2c3.53 0 6.4-2.87 6.4-6.4S19.53 6.4 16 6.4c-3.53 0-6.4 2.87-6.4 6.4s2.87 6.4 6.4 6.4zm0-9.6c1.765 0 3.2 1.435 3.2 3.2S17.765 16 16 16c-1.765 0-3.2-1.435-3.2-3.2s1.435-3.2 3.2-3.2z"/>
      <path d="M15.072 31.702a1.6 1.6 0 0 0 1.856 0c.486-.344 11.918-8.598 11.872-18.902C28.8 5.742 23.058 0 16 0S3.2 5.742 3.2 12.792c-.046 10.312 11.386 18.566 11.872 18.91zM16 3.2c5.294 0 9.6 4.306 9.6 9.608.034 7.101-7.021 13.477-9.6 15.568-2.578-2.093-9.634-8.47-9.6-15.576 0-5.294 4.306-9.6 9.6-9.6z"/>
    </symbol>
    <symbol id="icon-phone" viewBox="0 0 32 32">
      <path d="M24.77 17.336a1.694 1.694 0 0 0-1.836-.365c-.205.084-.39.209-.546.365l-2.685 2.685c-1.245-.371-3.567-1.213-5.039-2.685s-2.314-3.795-2.685-5.039l2.685-2.685a1.694 1.694 0 0 0 .365-1.836 1.667 1.667 0 0 0-.365-.546L7.927.493A1.694 1.694 0 0 0 6.091.128c-.205.084-.39.209-.546.365L.977 5.061c-.64.64-1 1.519-.987 2.417.039 2.398.674 10.729 7.239 17.294s14.895 7.198 17.295 7.239h.047c.889 0 1.73-.35 2.366-.987l4.568-4.568a1.694 1.694 0 0 0 .365-1.836 1.667 1.667 0 0 0-.365-.546l-6.737-6.739zm-.214 11.304c-2.102-.035-9.293-.6-14.944-6.252C3.943 16.719 3.394 9.502 3.36 7.442l3.377-3.377 4.355 4.355-2.178 2.178c-.198.198-.344.442-.423.71s-.092.552-.035.826c.04.194 1.029 4.787 3.825 7.582s7.389 3.784 7.582 3.825a1.663 1.663 0 0 0 1.536-.457l2.179-2.178 4.355 4.355-3.379 3.377z"/>
    </symbol>
    <symbol id="icon-email" viewBox="0 0 32 32">
      <path d="M28.8 3.2H3.2A3.203 3.203 0 0 0 0 6.4v19.2c0 1.765 1.435 3.2 3.2 3.2h25.6c1.765 0 3.2-1.435 3.2-3.2V6.4c0-1.765-1.435-3.2-3.2-3.2zm0 3.2v.818L16 17.175 3.2 7.22v-.819h25.6zM3.2 25.6V11.27l11.818 9.192a1.59 1.59 0 0 0 1.964 0L28.8 11.27l.003 14.33H3.2z"/>
    </symbol>
    <symbol id="icon-burger" viewBox="0 0 32 32">
      <path d="M0 4h32v4H0V4zm8 10h24v4H8v-4zm10 10h14v4H18v-4z"/>
    </symbol>
    <symbol id="icon-star" viewBox="0 0 32 32">
      <path d="M7.226 19.717 4.842 30.04a1.596 1.596 0 0 0 2.447 1.69l8.712-5.808 8.712 5.808a1.604 1.604 0 0 0 1.829-.04 1.606 1.606 0 0 0 .598-1.73l-2.926-10.24 7.258-6.531a1.604 1.604 0 0 0-.944-2.785l-9.122-.726L17.459.94a1.6 1.6 0 0 0-1.457-.945 1.591 1.591 0 0 0-1.457.945l-3.947 8.738-9.122.725a1.597 1.597 0 0 0-1.378 1.051 1.597 1.597 0 0 0 .388 1.69l6.742 6.571zm4.564-6.922a1.598 1.598 0 0 0 1.331-.937l2.878-6.37 2.878 6.37a1.597 1.597 0 0 0 1.331.937l6.355.504-5.234 4.71a1.605 1.605 0 0 0-.469 1.629l2.005 7.016-5.978-3.986a1.591 1.591 0 0 0-1.774 0l-6.246 4.165 1.68-7.274a1.6 1.6 0 0 0-.442-1.504l-4.861-4.739 6.544-.522z"/>
    </symbol>
    <symbol id="icon-cross" viewBox="0 0 32 32">
      <path d="M27.179.918 15.864 12.23 4.552.918.781 4.689l11.312 11.312L.781 27.313l3.771 3.771 11.312-11.312 11.315 11.312 3.771-3.771-11.312-11.312L30.95 4.689 27.179.918z"/>
    </symbol>
    <symbol id="icon-tick" viewBox="0 0 32 32">
      <path d="m10.667 21.517-7.025-7.025-3.017 3.017 10.042 10.042L31.375 6.843l-3.017-3.017-17.692 17.692z"/>
    </symbol>
    <symbol id="icon-plus" viewBox="0 0 32 32">
      <path d="M32 13.714H18.286V0h-4.571v13.714H.001v4.571h13.714v13.714h4.571V18.285H32v-4.571z"/>
    </symbol>
    <symbol id="icon-minus" viewBox="0 0 32 32">
      <path d="M0 13.714h32v4.571H0v-4.571z"/>
    </symbol>
    <symbol id="icon-arrow-right" viewBox="0 0 32 32">
      <path d="m12.098 28.098 3.232 3.232L30.66 16 15.33.67l-3.232 3.232 9.813 9.813H0v4.571h21.911l-9.813 9.813z"/>
    </symbol>
    <symbol id="icon-arrow-left" viewBox="0 0 32 32">
      <path d="m19.902 28.098-9.813-9.813H32v-4.571H10.089l9.813-9.813L16.67.669 1.34 15.999l15.33 15.33 3.232-3.232z"/>
    </symbol>
    <symbol id="icon-arrow-down" viewBox="0 0 32 32">
      <path d="m31.33 15.33-3.232-3.232-9.813 9.813V0h-4.571v21.911l-9.813-9.813L.669 15.33l15.33 15.33 15.33-15.33z"/>
    </symbol>
    <symbol id="icon-arrow-up" viewBox="0 0 32 32">
      <path d="M13.714 10.089V32h4.571V10.089l9.813 9.813 3.232-3.232L16 1.34.67 16.67l3.232 3.232 9.813-9.813z"/>
    </symbol>
    <symbol id="icon-list-right" viewBox="0 0 32 32">
      <path d="m9.885 31.866 15.219-15.219L9.885 1.428 6.114 5.199l11.448 11.448L6.114 28.095l3.771 3.771z"/>
    </symbol>
    <symbol id="icon-list-left" viewBox="0 0 32 32">
      <path d="M22.114.781 6.895 16l15.219 15.219 3.771-3.771L14.437 16 25.885 4.552 22.114.781z"/>
    </symbol>
    <symbol id="icon-list-down" viewBox="0 0 32 32">
      <path d="M27.448 6.115 16 17.563 4.552 6.115.781 9.886 16 25.105 31.219 9.886l-3.771-3.771z"/>
    </symbol>
    <symbol id="icon-list-top" viewBox="0 0 32 32">
      <path d="m.781 22.114 3.771 3.771L16 14.437l11.448 11.448 3.771-3.771L16 6.895.781 22.114z"/>
    </symbol>
    <symbol id="icon-close" viewBox="0 0 32 32">
      <path d="M32 3.223 28.777 0 16 12.777 3.223 0 0 3.223 12.777 16 0 28.777 3.223 32 16 19.223 28.777 32 32 28.777 19.223 16 32 3.223z"/>
    </symbol>
        <symbol id="icon-logo" viewBox="0 0 124 32">
      <path d="m2.904 16.635-.004.283.004-.278v-.006z"/>
      <path d="M22.593 2.777c.403-.021.838-.044 1.203.038.205.046.341.121.458.301.075.412.143.819.158 1.238.033.889.025 1.784.016 2.678-.004.405-.009.81-.009 1.213v7.695c0 .253.007.678.016 1.196.031 1.813.082 4.761-.081 5.411-.117.466-.355.68-.759.918-.36.046-.736.054-1.109.062-.195.004-.39.009-.581.018-1.797.091-3.694.275-5.345 1.038a6.89 6.89 0 0 0-1.274.74 8.622 8.622 0 0 0-.658.586c-.591.56-1.274 1.205-1.918 1.241-.743.041-1.447-.594-2.097-1.18-.309-.279-.606-.547-.889-.725-.686-.433-1.461-.767-2.23-1.018-1.268-.415-2.612-.627-3.943-.706-.201-.012-.407-.011-.615-.011-.386.001-.777.002-1.141-.079-.317-.07-.522-.232-.761-.443-.174-.415-.229-.927-.25-1.374a40.51 40.51 0 0 1-.018-2.416c.004-.358.008-.715.009-1.07l.005-6.806-.005-5.15c0-.225-.009-.469-.019-.722C.729 4.766.7 4.02.849 3.437c.082-.32.267-.462.536-.634 2.952-.191 6.177.422 8.772 1.865.862.479 1.639 1.065 2.424 1.658.441-.329.885-.657 1.339-.968 2.442-1.669 5.351-2.493 8.296-2.567.12-.003.247-.01.377-.017zm-.34 2.313c-.358.003-.736-.02-1.091.027-2.423.219-5.532 1.106-7.178 3.037-.07.082-.137.167-.201.253l-.004 15.155c.269-.196.536-.397.809-.587 2.264-1.352 5.095-1.585 7.676-1.77 0-5.368.072-10.747-.011-16.114zm-19.31.003c-.056 2.242-.044 4.493-.032 6.74.005.921.01 1.843.01 2.763 0 .676-.009 1.357-.017 2.039v.005c-.019 1.51-.037 3.027.038 4.519 2.982.257 5.975.551 8.459 2.374-.015-5.029.014-10.059.084-15.087C9.533 6.385 6.477 5.167 3.66 5.088a14.25 14.25 0 0 0-.716.004z"/>
      <path d="M22.593 2.777zm1.202.038zm.458.301.354-.065-.013-.071-.04-.061-.301.196zm.159 1.238zm.016 2.678zm-.009 8.908h-.36.36zm.017 1.196zm-.081 5.411zm-.759.918.045.357.073-.009.064-.038-.183-.31zm-1.109.062zm-.581.019-.018-.359.018.359zm-5.344 1.037zm-1.274.741zm-.658.586zm-1.919 1.241.02.359-.02-.359zm-2.097-1.18zm-.889-.725zm-2.229-1.018.112-.342-.112.342zm-3.943-.706-.022.359.021-.359zm-.615-.011zm-1.141-.078-.078.351.077-.351zm-.761-.443-.331.139.032.075.061.054.238-.269zm-.25-1.374zM.767 19.2zm.009-1.07zm.005-6.806h.36v-.001H.782zm-.005-5.15zm-.019-.722zm.092-2.013zm.536-.634-.023-.359-.092.006-.078.05.193.303zm8.771 1.866zm2.424 1.658-.217.287.215.163.216-.161-.215-.288zm1.339-.968zm8.297-2.566zm.037 2.295.359-.006-.006-.357-.357.003.003.359zm-1.09.027.032.358.015-.002-.047-.356zm-7.178 3.036-.274-.233-.001.001.275.232zm-.201.254-.287-.216-.072.096v.12h.36zm-.005 15.155h-.36v.706l.571-.415-.211-.291zm.81-.588-.184-.309-.011.006-.01.007.205.295zm7.675-1.77.026.358.334-.024v-.335h-.36zM2.943 5.093l-.012-.359-.339.011-.008.339.359.009zm-.032 6.74zm.009 2.763zm-.017 2.039-.36-.005v.005h.36zm0 .005.36.005v-.005h-.36zm.038 4.52-.359.018.016.313.312.027.031-.358zm8.459 2.374-.213.29.574.422-.002-.712-.36.001zm.084-15.087.36.005.002-.146-.1-.106-.261.247zM3.659 5.089l.01-.359h-.002l-.008.359zm18.934-2.312.019.359c.416-.022.798-.039 1.105.03l.078-.351.078-.351c-.422-.094-.909-.067-1.3-.046l.019.359zm1.202.038-.078.351a.473.473 0 0 1 .148.053c.024.015.052.04.087.093l.602-.393a1.007 1.007 0 0 0-.681-.455l-.078.351zm.458.301-.354.065c.075.41.138.796.153 1.187l.719-.027a9.001 9.001 0 0 0-.164-1.29l-.354.065zm.159 1.238-.359.013c.033.879.024 1.766.016 2.661l.719.007a57.71 57.71 0 0 0-.016-2.695l-.359.013zm.016 2.678-.36-.003c-.004.404-.009.811-.009 1.217h.719c0-.401.005-.804.009-1.21l-.36-.003zm-.009 1.213h-.36v7.695h.719V8.245h-.36zm0 7.695h-.36c0 .256.007.685.016 1.202l.719-.012a85.383 85.383 0 0 1-.016-1.19h-.36zm.017 1.196-.359.006c.016.907.036 2.094.032 3.134a36.55 36.55 0 0 1-.027 1.39c-.018.401-.045.671-.075.793l.697.175c.051-.203.079-.545.096-.936.018-.403.026-.895.028-1.419.004-1.049-.017-2.243-.033-3.149l-.36.006zm-.081 5.411-.349-.088a.904.904 0 0 1-.193.395 1.574 1.574 0 0 1-.399.301l.365.619c.213-.125.412-.261.574-.446.168-.19.28-.414.351-.694l-.349-.087zm-.759.918-.045-.357c-.339.043-.695.051-1.071.06l.008.359.008.36a11.21 11.21 0 0 0 1.146-.065l-.045-.357zm-1.109.062-.008-.359c-.194.004-.394.009-.591.019l.036.718c.185-.009.375-.014.571-.018l-.008-.36zm-.581.019-.018-.359c-1.799.091-3.759.276-5.477 1.07l.302.653c1.582-.731 3.418-.914 5.212-1.005l-.018-.359zm-5.344 1.037-.151-.326c-.455.21-.924.463-1.341.781l.435.572c.36-.274.778-.502 1.207-.7l-.151-.326zm-1.274.741-.218-.286a9.073 9.073 0 0 0-.688.611l.494.522c.241-.229.449-.424.629-.561l-.218-.286zm-.658.586-.247-.261c-.299.283-.6.567-.903.787-.308.224-.571.344-.788.356l.04.718c.427-.024.828-.244 1.17-.492.347-.252.683-.57.975-.847l-.247-.261zm-1.919 1.241-.02-.359c-.262.014-.546-.089-.868-.298s-.639-.493-.968-.79l-.482.534c.32.289.68.615 1.059.86s.818.439 1.299.412l-.02-.359zm-2.097-1.18.241-.267c-.302-.273-.624-.564-.938-.762l-.384.608c.251.159.524.403.84.688l.241-.267zm-.889-.725.192-.304c-.717-.453-1.521-.798-2.31-1.056l-.224.683c.749.245 1.495.568 2.149.981l.192-.304zm-2.229-1.018.112-.342c-1.304-.427-2.68-.643-4.033-.723l-.021.359-.021.359c1.308.078 2.62.286 3.852.689l.112-.342zm-3.943-.706.022-.359a9.794 9.794 0 0 0-.638-.011l.002.719c.21-.001.405-.001.592.01l.022-.359zm-.615-.011-.001-.36c-.393.001-.744 0-1.062-.07l-.155.702c.41.09.841.088 1.22.087l-.001-.36zm-1.141-.078.078-.351c-.223-.049-.37-.157-.6-.361l-.477.538c.247.218.509.433.921.525l.078-.351zm-.761-.443.331-.139c-.148-.353-.201-.811-.222-1.252l-.718.034c.022.453.077 1.019.278 1.496l.331-.139zm-.25-1.374.359-.017c-.038-.787-.028-1.586-.018-2.394l-.719-.009c-.01.804-.02 1.625.019 2.438l.359-.017zM.767 19.2l.359.005c.004-.358.008-.717.009-1.074H.416c0 .353-.004.708-.009 1.066l.359.004zm.009-1.07h.36l.005-6.806-.719-.001-.005 6.806h.36zm.005-6.806h.36l-.005-5.15-.719.001.005 5.15h.36zm-.005-5.15h.36c0-.233-.01-.485-.02-.736l-.718.028c.01.254.019.492.019.708h.359zm-.019-.722.359-.014c-.027-.701-.051-1.388.082-1.91L.501 3.35c-.164.645-.13 1.448-.104 2.116l.359-.014zm.092-2.013.348.089c.046-.18.128-.258.381-.42l-.387-.606c-.284.181-.573.387-.691.848l.348.089zm.536-.634.023.359c2.893-.188 6.047.415 8.573 1.821l.35-.628c-2.662-1.481-5.957-2.105-8.97-1.91l.023.359zm8.771 1.866-.175.314c.836.465 1.594 1.036 2.381 1.631l.434-.574c-.782-.591-1.578-1.192-2.465-1.686l-.175.314zm2.424 1.658.215.288c.441-.329.88-.653 1.327-.959l-.406-.594c-.461.315-.91.647-1.351.976l.215.288zm1.339-.968.203.297c2.378-1.625 5.217-2.432 8.102-2.504l-.018-.719c-3.006.075-5.984.916-8.49 2.629l.203.297zm8.297-2.566.009.359c.127-.003.26-.011.387-.018l-.038-.718c-.133.007-.253.014-.367.017l.009.359zm.037 2.295-.003-.359c-.323.003-.751-.021-1.135.03l.095.713c.325-.043.653-.021 1.046-.024l-.003-.359zm-1.09.027-.032-.358c-1.239.112-2.655.395-3.976.899-1.319.503-2.567 1.236-3.443 2.263l.547.466c.77-.903 1.899-1.579 3.152-2.057 1.25-.477 2.6-.747 3.785-.854l-.032-.358zm-7.178 3.036-.275-.232a6.002 6.002 0 0 0-.214.269l.575.432a5.45 5.45 0 0 1 .189-.237l-.275-.232zm-.201.254h-.36l-.004 15.155h.719l.004-15.155h-.36zm-.005 15.155.211.291c.277-.201.534-.396.803-.583l-.41-.591c-.277.193-.554.402-.816.592l.211.291zm.81-.588.184.309c2.178-1.301 4.922-1.534 7.517-1.721l-.026-.358-.026-.359c-2.565.184-5.485.417-7.834 1.82l.184.309zm7.675-1.77h.36c0-5.362.072-10.749-.011-16.12l-.719.011c.083 5.364.011 10.734.011 16.109h.36zM2.943 5.093l-.359-.009c-.056 2.249-.044 4.505-.032 6.751l.719-.004c-.012-2.248-.023-4.493.032-6.73l-.359-.009zm-.032 6.74-.36.002c.005.922.01 1.842.01 2.761h.719c0-.921-.005-1.843-.01-2.765l-.36.002zm.009 2.763h-.36c0 .673-.009 1.352-.017 2.034l.719.009c.009-.682.017-1.365.017-2.043h-.36zm-.017 2.039h-.36v.005h.719v-.005h-.36zm0 .005-.36-.005c-.019 1.508-.038 3.037.038 4.542l.718-.036c-.074-1.479-.056-2.985-.037-4.497l-.359-.005zm.038 4.52-.031.358c2.995.258 5.887.551 8.277 2.306l.425-.58c-2.577-1.891-5.673-2.187-8.641-2.442l-.031.358zm8.459 2.374.36-.001c-.015-5.027.014-10.055.084-15.081l-.719-.01a893.385 893.385 0 0 0-.084 15.093l.36-.001zm.084-15.087.261-.247C9.719 6.061 6.569 4.812 3.669 4.73l-.02.719c2.734.077 5.695 1.262 7.575 3.246l.261-.247zM3.659 5.089l.008-.359c-.245-.005-.49-.004-.735.004l.023.719c.232-.008.464-.009.696-.004l.008-.359zM33.633 4.432c2.88-.05 7.731-.135 9.329.477 1.22.467 2.258 1.387 2.789 2.589.523 1.185.561 2.753.086 3.959-.507 1.288-1.438 1.833-2.641 2.352.093.034.187.066.281.098.258.089.517.18.76.3a4.757 4.757 0 0 1 2.365 2.704c.489 1.442.302 3.056-.36 4.406a5.306 5.306 0 0 1-2.043 1.987c-.754.421-1.499.591-2.349.704-1.294.172-8.792.284-9.734-.037-.127-.043-.253-.091-.311-.217-.139-.301-.158-.762-.172-1.116l-.004-.098c-.09-2.016-.061-4.059-.032-6.094.013-.905.027-1.808.029-2.707.002-.866-.009-1.737-.02-2.61-.022-1.702-.044-3.411.033-5.095.017-.365.047-.772.179-1.115.101-.262.23-.353.476-.469.361-.002.819-.01 1.34-.019zm7.199 10.943c-1.05-.25-4.365-.077-5.626-.076l.001 5.752c1.48.003 4.706.19 5.974-.135a2.64 2.64 0 0 0 1.197-.635c.571-.673.867-1.352.781-2.254-.076-.802-.42-1.484-1.044-2a3.204 3.204 0 0 0-1.283-.652zm.888-7.383c-1.011-.785-3.663-.699-5.467-.641a38.71 38.71 0 0 1-1.046.025l.002 5.121c.336.001.746.012 1.193.024 1.477.038 3.361.086 4.345-.166a3.017 3.017 0 0 0 1.204-.601c.481-.582.743-1.247.681-2.012-.054-.673-.375-1.332-.912-1.749zM63.345 15.886a7.589 7.589 0 1 0-6.526 8.524 7.59 7.59 0 0 0 6.526-8.525zm-8.043-3.305c.843-.042 1.588-.028 2.336.428.84.512 1.362 1.386 1.589 2.325.322 1.331.247 3.165-.502 4.349-.537.848-1.284 1.224-2.231 1.432-.908.091-1.81.006-2.588-.516-.821-.551-1.299-1.45-1.484-2.402-.264-1.352-.181-3.108.636-4.266.561-.794 1.308-1.186 2.244-1.352z"/>
      <path d="M79.632 15.84a7.58 7.58 0 1 0-6.492 8.548 7.58 7.58 0 0 0 6.493-8.549zm-8.102-3.259c.82-.067 1.614-.042 2.352.371.876.491 1.411 1.352 1.66 2.303.358 1.366.288 3.129-.461 4.36-.53.873-1.286 1.279-2.252 1.496-.905.117-1.796.017-2.574-.495-.83-.546-1.312-1.434-1.514-2.389-.285-1.348-.193-3.085.594-4.257.533-.795 1.276-1.201 2.195-1.391zM82.658 3.819c.057-.005.114-.009.17-.011.564-.02 1.819-.129 2.202.387.163.22.187.679.207.95.086 1.145.017 2.343.017 3.493l.001 6.772c.801-.952 1.723-1.824 2.568-2.74.834-.905 1.636-1.945 2.56-2.751.22-.192.387-.294.672-.371.59-.161 2.729-.28 3.179.041.115.082.213.24.204.385-.04.644-4.298 4.843-5.04 5.578a575.876 575.876 0 0 0 4.132 5.929c.346.502 1.329 1.579 1.202 2.201a.498.498 0 0 1-.254.319c-.638.352-3.091.12-3.857-.129-.547-.55-.993-1.345-1.433-1.984l-2.665-3.885-1.273 1.107c-.005 1.019.3 4.017-.355 4.7-.293.306-.677.33-1.076.334-.61.006-1.789.108-2.235-.328-.114-1.173-.076-2.361-.077-3.539l-.002-5.03.001-6.892c0-1.225-.044-2.468.013-3.691.008-.165.012-.307.11-.447.234-.339.659-.345 1.03-.396zM108.562 9.415c.804-.017 2.404-.195 3.128.104.271.112.394.389.515.642.515 1.073.852 2.31 1.267 3.431.721 1.95 1.497 3.879 2.229 5.825.425-1.098 3.36-9.279 3.841-9.688.235-.2.683-.243.977-.251.619-.018 1.775-.155 2.244.278.118.279.103.431.034.73-.241 1.043-.751 2.128-1.126 3.134l-2.409 6.472-1.628 4.412c-.327.89-.616 1.843-1.039 2.69a5.462 5.462 0 0 1-.885 1.3c-.865.927-1.997 1.325-3.243 1.368-.534.019-1.45.118-1.863-.264-.263-.532-.285-1.773-.116-2.347.166-.559 1.389-.452 1.882-.73.793-.447 1.01-1.326 1.215-2.143-.638-1.928-5.438-13.716-5.391-14.382.02-.289.157-.414.367-.58zM100.677 9.358c.403-.061.845-.045 1.254-.04 1.627.016 3.448.359 4.62 1.583.538.563.931 1.413.872 2.206-.01.135-.047.329-.163.41-.585.413-2.18.332-2.875.239-.616-.083-.569-.495-.948-.946-.419-.496-1.03-.74-1.667-.786-.709-.052-1.606.179-2.133.677-.233.22-.479.786-.441 1.103.164 1.382 4.058 1.56 5.179 1.842.951.239 1.929.595 2.688 1.235.72.607 1.046 1.434 1.119 2.358.09 1.14-.242 2.231-.999 3.094-1.314 1.499-3.229 1.94-5.135 2.079-1.465.05-3.041-.151-4.358-.828-.956-.491-1.818-1.258-2.137-2.317-.131-.432-.218-.938.012-1.348.666-.522 2.485-.318 3.293-.288.272.415.439.902.812 1.245.628.579 1.554.754 2.383.712.678-.034 1.4-.226 1.854-.765.251-.297.396-.678.359-1.07-.15-1.567-4.011-1.562-5.207-1.838-.863-.198-1.743-.549-2.442-1.102-.736-.584-1.207-1.371-1.296-2.313a4.416 4.416 0 0 1 .988-3.184c1.107-1.341 2.698-1.796 4.365-1.959z"/>
    </symbol>
  </defs>
</svg>

