<svg xmlns="http://www.w3.org/2000/svg" width="22" height="22" fill="none">
  <path fill="#010101" d="M19.42 1.017c.34-.018.706-.037 1.013.03.173.037.287.1.386.247.064.338.12.672.133 1.016.028.728.02 1.462.014 2.194-.004.332-.006.664-.006.995l-.001 6.309c0 .207.007.555.014.98.027 1.487.07 3.904-.068 4.437-.099.381-.3.557-.64.752a9.33 9.33 0 0 1-.934.051c-.165.004-.329.007-.49.015-1.514.075-3.113.225-4.503.85a5.818 5.818 0 0 0-1.074.607 7.377 7.377 0 0 0-.554.48c-.498.46-1.074.99-1.617 1.019-.626.033-1.22-.487-1.767-.968-.26-.228-.51-.448-.75-.595a8.614 8.614 0 0 0-1.878-.834c-1.069-.34-2.201-.514-3.322-.579-.17-.01-.344-.009-.519-.008-.325 0-.655.001-.962-.065-.267-.058-.44-.19-.64-.363-.147-.34-.193-.76-.211-1.127a31.945 31.945 0 0 1-.016-1.98c.004-.293.008-.586.008-.878l.004-5.58-.005-4.221c0-.185-.007-.385-.016-.592-.022-.561-.047-1.172.078-1.65.07-.263.225-.38.452-.52 2.488-.157 5.205.346 7.391 1.53.726.392 1.381.874 2.042 1.36.372-.27.746-.54 1.13-.794 2.057-1.368 4.508-2.045 6.99-2.105.101-.002.208-.008.318-.013Zm-.286 1.895c-.302.003-.621-.016-.92.023-2.041.18-4.66.906-6.047 2.488a4.653 4.653 0 0 0-.171.208l-.003 12.425c.227-.16.451-.326.682-.482 1.907-1.109 4.294-1.299 6.468-1.451 0-4.401.06-8.81-.01-13.21ZM2.86 2.915c-.047 1.838-.036 3.683-.026 5.525.004.756.007 1.512.008 2.266 0 .554-.008 1.112-.015 1.671v.005c-.016 1.237-.032 2.482.031 3.705 2.513.21 5.036.452 7.13 1.946-.013-4.123.01-8.246.07-12.369-1.646-1.69-4.22-2.688-6.594-2.753-.201-.004-.403-.002-.604.004Z"/>
  <path fill="#010101" d="m19.42 1.017.008.152-.008-.152Zm1.013.03.033-.15-.033.15Zm.386.247.15-.028-.006-.031-.017-.026-.127.085Zm.133 1.016-.153.005.153-.005Zm.014 2.194.152.001-.152-.001Zm-.006.995h.152-.152Zm-.001 6.309h-.153.153Zm.014.98.153-.003-.153.003Zm-.068 4.437-.148-.039.148.039Zm-.64.752.02.151.03-.004.026-.015-.076-.132Zm-.934.051-.003-.152.003.152Zm-.49.015-.007-.153.008.153Zm-4.503.85.062.14-.062-.14Zm-1.074.607.091.123-.09-.123Zm-.554.48-.104-.112.104.113ZM11.093 21l.008.152-.008-.152Zm-1.767-.968.1-.114-.1.114Zm-.75-.595-.079.13.08-.13Zm-1.878-.834.046-.145-.046.145Zm-3.322-.579-.01.153h.001l.009-.153Zm-.519-.008v-.153.153Zm-.962-.065-.032.15.032-.15Zm-.64-.363-.14.06.013.033.027.023.1-.116Zm-.211-1.127.152-.008-.152.008Zm-.016-1.98-.153-.002.153.002Zm.008-.878H.883h.153Zm.004-5.58h.153-.153Zm-.005-4.221H.882h.153Zm-.016-.592-.152.006.152-.006Zm.078-1.65-.147-.04.147.04Zm.452-.52-.01-.152-.038.002-.033.02.08.13ZM8.94 2.57l-.072.134.072-.135Zm2.042 1.36-.09.123.09.066.09-.066-.09-.123Zm1.13-.794.084.127-.085-.127Zm6.99-2.105.004.153-.004-.153Zm.032 1.882.152-.002-.002-.152-.152.001.002.153Zm-.92.023.014.152.006-.001-.02-.151Zm-6.047 2.488-.115-.1.115.1Zm-.171.208-.121-.093-.032.04v.053h.153Zm-.003 12.425h-.153v.295l.241-.17-.088-.125Zm.682-.482-.077-.132-.009.006.086.126Zm6.468-1.451.011.152.142-.01v-.142h-.153ZM2.861 2.915l-.005-.153-.144.005-.004.144.153.004ZM2.835 8.44l-.153.001h.153Zm.008 2.266H2.69h.153Zm-.015 1.671-.153-.002v.002h.153Zm0 .005.153.002v-.002h-.153Zm.031 3.705-.152.008.007.133.132.011.013-.152Zm7.13 1.946-.09.124.243.174-.001-.298h-.153Zm.07-12.369.152.002.001-.063-.044-.045-.11.106ZM3.464 2.911l.004-.153h-.001l-.003.153ZM19.42 1.017l.008.152c.345-.018.69-.034.973.027l.032-.15.033-.148c-.331-.072-.72-.051-1.054-.034l.008.153Zm1.013.03-.032.15c.076.016.13.036.173.062.041.026.08.062.118.12l.127-.085.127-.085a.69.69 0 0 0-.212-.21.839.839 0 0 0-.268-.101l-.033.149Zm.386.247-.15.028c.063.337.118.662.13.993l.153-.005.153-.006a7.038 7.038 0 0 0-.136-1.038l-.15.028Zm.133 1.016-.153.005c.028.725.021 1.455.014 2.187l.153.002.152.001a45.92 45.92 0 0 0-.013-2.201l-.153.006Zm.014 2.194-.153-.002c-.003.333-.006.665-.006.997h.305c0-.33.003-.662.006-.994l-.152-.001Zm-.006.995h-.153v6.309h.304l.002-6.309h-.153Zm-.001 6.309h-.153c0 .209.007.56.015.983l.152-.003.153-.003c-.008-.425-.014-.772-.015-.978h-.152Zm.014.98-.152.003c.013.743.03 1.718.027 2.573-.002.427-.008.823-.023 1.145-.015.327-.038.562-.068.677l.148.039.148.038c.039-.151.062-.418.077-.74.015-.328.022-.729.024-1.158.003-.859-.015-1.837-.028-2.58l-.153.003Zm-.068 4.437-.148-.039a.86.86 0 0 1-.194.382 1.486 1.486 0 0 1-.373.276l.075.133.076.132c.175-.1.327-.202.448-.336.124-.136.21-.299.264-.51l-.148-.038Zm-.64.752-.018-.152a9.182 9.182 0 0 1-.92.05l.004.153.003.153c.313-.007.637-.014.95-.053l-.019-.151Zm-.934.051-.003-.152c-.164.003-.33.006-.494.014l.008.153.007.152c.158-.007.32-.01.485-.014l-.003-.153Zm-.49.015-.007-.153c-1.515.075-3.14.226-4.559.864l.063.14.062.139c1.362-.613 2.936-.763 4.45-.838l-.008-.152Zm-4.503.85-.063-.139c-.377.17-.762.372-1.101.623l.09.123.091.123a5.668 5.668 0 0 1 1.045-.59l-.062-.14Zm-1.074.607-.09-.123c-.176.13-.37.31-.568.491l.104.113.103.112c.202-.186.383-.352.542-.47l-.09-.123Zm-.554.48-.104-.112c-.25.231-.511.471-.776.658-.267.188-.518.308-.746.32l.009.153.008.152c.315-.017.623-.177.905-.375.284-.2.56-.455.807-.683l-.103-.113ZM11.093 21l-.009-.152c-.267.014-.54-.09-.823-.268-.283-.179-.559-.42-.834-.663l-.101.115-.1.115c.27.238.565.497.872.691.308.194.645.334 1.003.314L11.093 21Zm-1.767-.968.1-.114c-.257-.227-.517-.456-.77-.61l-.08.13-.079.13c.225.138.465.348.728.579l.101-.115Zm-.75-.595.08-.13a8.758 8.758 0 0 0-1.912-.849l-.046.145-.046.146c.64.204 1.28.472 1.845.819l.08-.13Zm-1.878-.834.046-.145c-1.083-.345-2.229-.52-3.36-.586l-.008.152-.009.153c1.112.064 2.23.237 3.285.572l.046-.146Zm-3.322-.579.009-.152c-.175-.01-.354-.01-.528-.01v.306c.177 0 .346 0 .51.009l.009-.153Zm-.519-.008v-.153c-.329.001-.642 0-.93-.061l-.032.15-.032.148c.326.07.672.07.995.068v-.152Zm-.962-.065.033-.15c-.228-.048-.376-.159-.574-.329l-.1.116-.099.116c.204.176.401.33.708.396l.032-.149Zm-.64-.363.14-.06c-.136-.314-.18-.71-.199-1.075l-.152.008-.153.008c.018.369.065.813.224 1.18l.14-.061Zm-.211-1.127.152-.008a31.802 31.802 0 0 1-.015-1.97l-.153-.002-.153-.002c-.008.66-.016 1.328.016 1.99l.153-.008Zm-.016-1.98.153.002c.004-.293.007-.587.008-.88H.883c0 .29-.004.583-.008.877l.153.002Zm.008-.878h.153l.004-5.58H.887l-.004 5.58h.153Zm.004-5.58h.153l-.005-4.221H.882l.005 4.222h.153Zm-.005-4.221h.153c0-.188-.008-.391-.016-.598l-.153.006-.152.006c.008.207.015.405.015.586h.153Zm-.016-.592.153-.006c-.023-.568-.045-1.154.073-1.606l-.148-.038-.147-.04C.817 2.026.845 2.662.867 3.216l.152-.006Zm.078-1.65.148.038c.053-.202.164-.292.384-.428l-.08-.13-.08-.13c-.233.144-.434.288-.52.61l.148.04Zm.452-.52.01.152c2.463-.155 5.15.344 7.309 1.512l.072-.135.073-.134C6.798 1.235 4.052.728 1.539.887l.01.152ZM8.94 2.57l-.072.134c.715.387 1.361.862 2.024 1.349l.09-.123.09-.123c-.66-.485-1.322-.973-2.06-1.372l-.072.134Zm2.042 1.36.09.123c.372-.27.744-.537 1.124-.79l-.085-.127-.084-.127a33.92 33.92 0 0 0-1.134.797l.09.124Zm1.13-.794.084.127c2.03-1.35 4.452-2.02 6.91-2.079l-.004-.153L19.1.878c-2.507.06-4.987.743-7.072 2.13l.084.127Zm6.99-2.105.004.153c.104-.003.213-.008.322-.014l-.008-.152-.008-.153c-.11.006-.215.011-.313.014l.003.152Zm.032 1.882-.002-.153c-.287.003-.626-.016-.937.024l.02.152.02.151c.285-.037.584-.019.9-.021l-.001-.153Zm-.92.023-.013-.153c-1.032.091-2.21.32-3.31.728-1.096.406-2.123.995-2.84 1.812l.116.1.115.102c.67-.766 1.646-1.331 2.716-1.728 1.069-.396 2.22-.62 3.23-.71l-.013-.151Zm-6.047 2.488-.115-.1c-.06.07-.12.141-.177.215l.12.093.122.093c.052-.068.108-.135.165-.201l-.115-.1Zm-.171.208h-.153l-.003 12.425h.306l.003-12.425h-.153Zm-.003 12.425.088.124c.23-.162.45-.325.68-.48l-.086-.126-.086-.126c-.232.156-.46.325-.684.483l.088.125Zm.682-.482.076.132c1.872-1.088 4.222-1.278 6.403-1.43l-.01-.153-.011-.152c-2.168.151-4.592.342-6.535 1.471l.077.132Zm6.468-1.451h.153c0-4.398.06-8.812-.01-13.213l-.152.002-.153.003c.07 4.398.01 8.804.01 13.208h.152ZM2.861 2.915l-.153-.004c-.046 1.841-.036 3.689-.026 5.53h.153l.152-.001c-.01-1.843-.02-3.686.027-5.521l-.153-.004ZM2.835 8.44l-.153.001c.004.756.008 1.511.008 2.265h.305c0-.755-.003-1.51-.008-2.266h-.152Zm.008 2.266H2.69c0 .553-.008 1.11-.015 1.669l.153.002.153.002c.007-.559.014-1.118.014-1.673h-.152Zm-.015 1.671h-.153v.005h.306v-.005h-.153Zm0 .005-.153-.002c-.016 1.236-.032 2.486.032 3.715l.152-.008.153-.008c-.063-1.218-.047-2.457-.031-3.695l-.153-.002Zm.031 3.705-.013.152c2.519.211 5 .452 7.053 1.918l.09-.124.088-.124c-2.132-1.522-4.699-1.764-7.205-1.974l-.013.152Zm7.13 1.946h.152a710.98 710.98 0 0 1 .07-12.367l-.153-.002-.152-.002c-.06 4.123-.083 8.248-.07 12.372h.152Zm.07-12.369.109-.106c-1.677-1.723-4.291-2.734-6.7-2.8l-.003.153-.005.153C5.8 3.128 8.335 4.113 9.95 5.77l.11-.107ZM3.464 2.911l.003-.153a11.659 11.659 0 0 0-.612.004l.005.153.005.153c.198-.007.397-.008.595-.004l.004-.153Z"/>
</svg>
